<?xml version="1.0" standalone="no"?>
<!DOCTYPE svg PUBLIC "-//W3C//DTD SVG 20010904//EN"
 "http://www.w3.org/TR/2001/REC-SVG-20010904/DTD/svg10.dtd">
<svg version="1.0" xmlns="http://www.w3.org/2000/svg"
 width="512.000000pt" height="512.000000pt" viewBox="0 0 512.000000 512.000000"
 preserveAspectRatio="xMidYMid meet">
<metadata>
Created by potrace 1.11, written by Peter Selinger 2001-2013
</metadata>
<g transform="translate(0.000000,512.000000) scale(0.100000,-0.100000)"
fill="#000000" stroke="none">
<path d="M0 2560 l0 -2560 2560 0 2560 0 0 2560 0 2560 -2560 0 -2560 0 0
-2560z m1465 751 c18 -20 41 -46 51 -58 l19 -23 50 60 50 60 133 0 132 0 0
-295 0 -295 -135 0 -135 0 0 143 -1 142 -48 -53 -47 -53 -47 53 -46 53 -1
-142 0 -143 -135 0 -135 0 0 295 0 294 123 3 c67 2 126 1 131 -1 5 -2 23 -20
41 -40z m1045 -37 l0 -75 -112 2 -113 2 -3 -37 -3 -36 80 0 81 0 0 -75 0 -75
-80 0 -80 0 0 -35 0 -35 115 0 115 0 0 -75 0 -75 -247 0 -248 0 2 297 c2 164
3 298 3 298 0 0 110 -1 245 -3 l245 -3 0 -75z m515 71 c58 -13 143 -47 158
-61 5 -5 -80 -139 -113 -177 -4 -5 -29 -1 -54 7 -107 36 -196 10 -196 -58 0
-37 23 -62 60 -68 23 -3 25 1 28 40 l3 42 135 0 134 0 0 -154 c0 -91 -4 -157
-10 -161 -5 -3 -81 -7 -167 -8 -172 -1 -243 12 -310 58 -145 98 -166 341 -41
462 47 45 73 60 133 79 54 17 167 17 240 -1z m876 -287 c54 -156 99 -287 99
-291 0 -4 -59 -6 -132 -5 l-131 3 -15 43 -14 43 -101 -3 -100 -3 -15 -42 -14
-43 -133 0 -132 0 47 138 c27 75 73 207 102 292 l55 155 184 5 c101 3 188 2
193 -2 4 -3 53 -134 107 -290z m-2313 -729 l49 -57 55 62 55 61 126 -3 127 -3
0 -295 0 -294 -136 0 -135 0 3 140 c2 77 1 140 -2 140 -3 0 -25 -23 -50 -51
l-45 -50 -47 56 -48 57 0 -146 0 -146 -135 0 -135 0 0 293 c0 162 2 296 4 298
2 2 63 2 134 -1 l130 -5 50 -56z m1162 -233 c55 -158 100 -290 100 -292 0 -2
-60 -4 -134 -4 l-134 0 -11 45 -11 46 -102 -3 -101 -3 -15 -42 -14 -43 -133 0
-134 0 70 203 c39 111 85 244 102 294 l31 93 186 2 c102 2 188 1 192 -2 4 -3
53 -135 108 -294z m580 163 l0 -129 -65 0 -65 0 0 -165 0 -165 -135 0 -135 0
0 165 0 165 -65 0 -65 0 0 130 0 130 258 2 c141 2 260 2 265 0 4 -2 7 -61 7
-133z m560 1 l0 -130 -65 0 -65 0 0 -165 0 -165 -135 0 -135 0 0 165 0 165
-65 0 -65 0 0 130 0 130 265 0 265 0 0 -130z"/>
<path d="M3587 3077 c-24 -75 -23 -77 24 -77 35 0 41 3 36 18 -3 9 -11 38 -18
65 -7 26 -16 47 -19 47 -4 0 -14 -24 -23 -53z"/>
<path d="M2437 2124 c-8 -27 -18 -57 -22 -66 -6 -16 -1 -18 39 -18 25 0 46 4
46 8 0 15 -32 107 -41 116 -4 5 -14 -13 -22 -40z"/>
</g>
</svg>
